<?xml version="1.0" encoding="UTF-8"?>
<svg id="Layer_2" data-name="Layer 2" xmlns="http://www.w3.org/2000/svg" viewBox="0 0 797.99 551.05">
  <g id="Layer_1-2" data-name="Layer 1">
    <g id="FP-Logo-Lightmode">
      <path d="M212.54,467.46C96.88,467.46,2.7,363.19,2.7,235.09S96.88,2.72,212.54,2.72s209.84,104.27,209.84,232.37-94.18,232.37-209.84,232.37Z" fill="#3fa9f5"/>
      <path d="M212.54,5.44c27.86,0,54.97,6.09,80.46,17.96,24.62,11.54,46.76,28.08,65.88,49.09,19.12,21.11,34.02,45.6,44.5,73.03,10.8,28.3,16.31,58.45,16.31,89.57s-5.51,61.17-16.31,89.57c-10.48,27.32-25.49,51.92-44.5,73.03-19.01,21.01-41.15,37.55-65.88,49.09-25.49,11.97-52.6,17.96-80.46,17.96s-54.97-6.09-80.46-17.96c-24.62-11.54-46.76-28.08-65.88-49.09-19.12-21.11-34.02-45.6-44.5-73.03-10.8-28.3-16.31-58.45-16.31-89.57s5.51-61.17,16.31-89.57c10.48-27.32,25.49-51.92,44.5-73.03,19.01-21.01,41.15-37.55,65.88-49.09,25.49-11.97,52.6-17.96,80.46-17.96M212.54,0C95.15,0,0,105.25,0,235.09s95.15,235.09,212.54,235.09,212.54-105.25,212.54-235.09S329.94,0,212.54,0h0Z"/>
      <path d="M583.3,467.46c-115.67,0-209.84-104.27-209.84-232.37S467.64,2.72,583.3,2.72s209.84,104.27,209.84,232.37-94.18,232.37-209.84,232.37Z" fill="#1f1f1f"/>
      <path d="M583.3,5.44c27.86,0,54.97,6.09,80.46,17.96,24.62,11.54,46.76,28.08,65.88,49.09,19.12,21.11,34.02,45.6,44.5,73.03,10.8,28.3,16.31,58.45,16.31,89.57s-5.51,61.17-16.31,89.57c-10.48,27.32-25.49,51.92-44.5,73.03-19.01,21.01-41.15,37.55-65.88,49.09-25.49,11.97-52.6,17.96-80.46,17.96s-54.97-6.09-80.46-17.96c-24.62-11.54-46.76-28.08-65.88-49.09-19.12-21.11-34.02-45.6-44.5-73.03-10.8-28.3-16.31-58.45-16.31-89.57s5.51-61.17,16.31-89.57c10.48-27.32,25.49-51.92,44.5-73.03,19.01-21.01,41.15-37.55,65.88-49.09,25.49-11.97,52.6-17.96,80.46-17.96M583.3,0c-117.4,0-212.54,105.25-212.54,235.09s95.15,235.09,212.54,235.09,212.54-105.25,212.54-235.09S700.7,0,583.3,0h0Z"/>
      <polygon points="340.31 416.31 544.21 235.09 370.76 235.09 426.6 81.52 232.2 325.86 390.2 325.32 340.31 416.31" fill="#fff" stroke="#000" stroke-miterlimit="10" stroke-width="5"/>
      <text transform="translate(2.7 528.55)" font-family="MyriadPro-Regular, &apos;Myriad Pro&apos;" font-size="86" stroke-miterlimit="10" stroke-width="2"><tspan x="0" y="0" fill="#3fa9f5" letter-spacing="-.03em" stroke="#3fa9f5">F</tspan><tspan x="39.22" y="0" fill="#3fa9f5" stroke="#3fa9f5">o</tspan><tspan x="86.43" y="0" fill="#3fa9f5" letter-spacing="0em" stroke="#3fa9f5">r</tspan><tspan x="114.9" y="0" fill="#3fa9f5" stroke="#3fa9f5">ke</tspan><tspan x="198.31" y="0" fill="#3fa9f5" letter-spacing=".02em" stroke="#3fa9f5">r</tspan><tspan x="228.5" y="0" fill="#3fa9f5" letter-spacing="0em" stroke="#3fa9f5">t</tspan><tspan x="256.96" y="0" stroke="#3fa9f5"> </tspan><tspan x="275.2" y="0" fill="#1f1f1f" letter-spacing="-.03em" stroke="#1f1f1f">P</tspan><tspan x="318.71" y="0" fill="#1f1f1f" stroke="#1f1f1f">a</tspan><tspan x="360.16" y="0" fill="#1f1f1f" letter-spacing="0em" stroke="#1f1f1f">r</tspan><tspan x="387.86" y="0" fill="#1f1f1f" stroke="#1f1f1f">alleluni</tspan><tspan x="648.52" y="0" fill="#1f1f1f" letter-spacing="-.01em" stroke="#1f1f1f">v</tspan><tspan x="689.02" y="0" fill="#1f1f1f" stroke="#1f1f1f">ers</tspan></text>
    </g>
  </g>
</svg>