<?xml version="1.0" encoding="UTF-8"?>
<svg id="Layer_1" xmlns="http://www.w3.org/2000/svg" version="1.1" viewBox="0 0 1920 1080">
  <!-- Generator: Adobe Illustrator 30.0.0, SVG Export Plug-In . SVG Version: 2.1.1 Build 123)  -->
  <defs>
    <style>
      .st0, .st1, .st2, .st3, .st4 {
        stroke-miterlimit: 10;
      }

      .st0, .st1, .st3, .st4 {
        stroke-width: 2px;
      }

      .st0, .st2 {
        stroke: #000;
      }

      .st5, .st1, .st6, .st7, .st8, .st9, .st3, .st4 {
        isolation: isolate;
      }

      .st5, .st1, .st6, .st8, .st9, .st3, .st4 {
        font-family: ArialMT, Arial;
        font-size: 86px;
      }

      .st10, .st9 {
        fill: #e4e4e4;
      }

      .st1 {
        stroke: #e4e4e4;
      }

      .st1, .st3, .st4 {
        fill: none;
      }

      .st2 {
        fill: #fff;
        stroke-width: 5px;
      }

      .st6, .st11 {
        fill: #3fa9f5;
      }

      .st8, .st12 {
        fill: #1f1f1f;
      }

      .st3 {
        stroke: #1f1f1f;
      }

      .st4 {
        stroke: #3fa9f5;
      }
    </style>
  </defs>
  <rect class="st0" x="983.1" width="936.8" height="1080"/>
  <g id="FP-Logo-Lightmode">
    <path class="st11" d="M240,688.3c-115.7,0-209.8-104.3-209.8-232.4s94.2-232.4,209.8-232.4,209.8,104.3,209.8,232.4-94.2,232.4-209.8,232.4h0Z"/>
    <path d="M240,226.3c27.9,0,55,6.1,80.5,18,24.6,11.5,46.8,28.1,65.9,49.1,19.1,21.1,34,45.6,44.5,73,10.8,28.3,16.3,58.4,16.3,89.6s-5.5,61.2-16.3,89.6c-10.5,27.3-25.5,51.9-44.5,73-19,21-41.1,37.5-65.9,49.1-25.5,12-52.6,18-80.5,18s-55-6.1-80.5-18c-24.6-11.5-46.8-28.1-65.9-49.1-19.1-21.1-34-45.6-44.5-73-10.8-28.3-16.3-58.4-16.3-89.6s5.5-61.2,16.3-89.6c10.5-27.3,25.5-51.9,44.5-73,19-21,41.1-37.5,65.9-49.1,25.5-12,52.6-18,80.5-18M240,220.8c-117.4,0-212.5,105.2-212.5,235.1s95.1,235.1,212.5,235.1,212.5-105.2,212.5-235.1-95.1-235.1-212.5-235.1h0Z"/>
    <path class="st12" d="M610.8,688.3c-115.7,0-209.8-104.3-209.8-232.4s94.2-232.4,209.8-232.4,209.8,104.3,209.8,232.4-94.2,232.4-209.8,232.4Z"/>
    <path d="M610.8,226.3c27.9,0,55,6.1,80.5,18,24.6,11.5,46.8,28.1,65.9,49.1,19.1,21.1,34,45.6,44.5,73,10.8,28.3,16.3,58.4,16.3,89.6s-5.5,61.2-16.3,89.6c-10.5,27.3-25.5,51.9-44.5,73-19,21-41.1,37.5-65.9,49.1-25.5,12-52.6,18-80.5,18s-55-6.1-80.5-18c-24.6-11.5-46.8-28.1-65.9-49.1-19.1-21.1-34-45.6-44.5-73-10.8-28.3-16.3-58.4-16.3-89.6s5.5-61.2,16.3-89.6c10.5-27.3,25.5-51.9,44.5-73,19-21,41.1-37.5,65.9-49.1,25.5-12,52.6-18,80.5-18M610.8,220.8c-117.4,0-212.5,105.2-212.5,235.1s95.1,235.1,212.5,235.1,212.5-105.2,212.5-235.1-95.1-235.1-212.5-235.1h0Z"/>
    <polygon class="st2" points="367.8 637.2 571.7 455.9 398.3 455.9 454.1 302.4 259.7 546.7 417.7 546.2 367.8 637.2"/>
    <g class="st7">
      <text class="st6" transform="translate(30.2 749.4)"><tspan x="0" y="0">Forkert</tspan></text>
      <text class="st4" transform="translate(30.2 749.4)"><tspan x="0" y="0">Forkert</tspan></text>
      <text class="st5" transform="translate(287.4 749.4)"><tspan x="0" y="0"> </tspan></text>
      <text class="st4" transform="translate(287.4 749.4)"><tspan x="0" y="0"> </tspan></text>
      <text class="st8" transform="translate(305.7 749.4)"><tspan x="0" y="0">Parallelunivers</tspan></text>
      <text class="st3" transform="translate(305.7 749.4)"><tspan x="0" y="0">Parallelunivers</tspan></text>
    </g>
  </g>
  <g id="FP-Logo-Darkmode">
    <path class="st11" d="M1238.9,688.3c-115.7,0-209.8-104.3-209.8-232.4s94.2-232.4,209.8-232.4,209.8,104.3,209.8,232.4-94.2,232.4-209.8,232.4Z"/>
    <path d="M1238.9,226.3c27.9,0,55,6.1,80.5,18,24.6,11.5,46.8,28.1,65.9,49.1,19.1,21.1,34,45.6,44.5,73,10.8,28.3,16.3,58.4,16.3,89.6s-5.5,61.2-16.3,89.6c-10.5,27.3-25.5,51.9-44.5,73-19,21-41.1,37.5-65.9,49.1-25.5,12-52.6,18-80.5,18s-55-6.1-80.5-18c-24.6-11.5-46.8-28.1-65.9-49.1-19.1-21.1-34-45.6-44.5-73-10.8-28.3-16.3-58.4-16.3-89.6s5.5-61.2,16.3-89.6c10.5-27.3,25.5-51.9,44.5-73,19-21,41.1-37.5,65.9-49.1,25.5-12,52.6-18,80.5-18M1238.9,220.8c-117.4,0-212.5,105.2-212.5,235.1s95.1,235.1,212.5,235.1,212.5-105.2,212.5-235.1-95.1-235.1-212.5-235.1h0Z"/>
    <path class="st10" d="M1609.7,688.3c-115.7,0-209.8-104.3-209.8-232.4s94.2-232.4,209.8-232.4,209.8,104.3,209.8,232.4-94.2,232.4-209.8,232.4Z"/>
    <path d="M1609.7,226.3c27.9,0,55,6.1,80.5,18,24.6,11.5,46.8,28.1,65.9,49.1,19.1,21.1,34,45.6,44.5,73,10.8,28.3,16.3,58.4,16.3,89.6s-5.5,61.2-16.3,89.6c-10.5,27.3-25.5,51.9-44.5,73-19,21-41.1,37.5-65.9,49.1-25.5,12-52.6,18-80.5,18s-55-6.1-80.5-18c-24.6-11.5-46.8-28.1-65.9-49.1-19.1-21.1-34-45.6-44.5-73-10.8-28.3-16.3-58.4-16.3-89.6s5.5-61.2,16.3-89.6c10.5-27.3,25.5-51.9,44.5-73,19-21,41.1-37.5,65.9-49.1,25.5-12,52.6-18,80.5-18M1609.7,220.8c-117.4,0-212.5,105.2-212.5,235.1s95.1,235.1,212.5,235.1,212.5-105.2,212.5-235.1-95.1-235.1-212.5-235.1h0Z"/>
    <polygon class="st2" points="1366.7 637.2 1570.6 455.9 1397.1 455.9 1453 302.4 1258.6 546.7 1416.6 546.2 1366.7 637.2"/>
    <g class="st7">
      <text class="st6" transform="translate(1029.1 749.4)"><tspan x="0" y="0">Forkert</tspan></text>
      <text class="st4" transform="translate(1029.1 749.4)"><tspan x="0" y="0">Forkert</tspan></text>
      <text class="st5" transform="translate(1286.3 749.4)"><tspan x="0" y="0"> </tspan></text>
      <text class="st4" transform="translate(1286.3 749.4)"><tspan x="0" y="0"> </tspan></text>
      <text class="st9" transform="translate(1304.6 749.4)"><tspan x="0" y="0">Parallelunivers</tspan></text>
      <text class="st1" transform="translate(1304.6 749.4)"><tspan x="0" y="0">Parallelunivers</tspan></text>
    </g>
  </g>
</svg>