<?xml version="1.0" encoding="UTF-8"?>
<svg id="Layer_2" data-name="Layer 2" xmlns="http://www.w3.org/2000/svg" xmlns:xlink="http://www.w3.org/1999/xlink" viewBox="0 0 435.23 620.96">
  <defs>
    <linearGradient id="linear-gradient" x1="2.5" y1="310.48" x2="432.73" y2="310.48" gradientUnits="userSpaceOnUse">
      <stop offset="0" stop-color="#8fccd5"/>
      <stop offset=".5" stop-color="#5bbac7"/>
      <stop offset="1" stop-color="#00aab9"/>
    </linearGradient>
    <linearGradient id="Water_7" data-name="Water 7" x1="122.49" y1="320.48" x2="257.96" y2="320.48" gradientUnits="userSpaceOnUse">
      <stop offset="0" stop-color="#69afe0"/>
      <stop offset=".1" stop-color="#5facde"/>
      <stop offset=".26" stop-color="#46a6db"/>
      <stop offset=".46" stop-color="#1d9bd6"/>
      <stop offset=".58" stop-color="#0094d3"/>
      <stop offset="1" stop-color="#007fc3"/>
    </linearGradient>
    <linearGradient id="linear-gradient-2" x1="138.49" y1="321.91" x2="234.39" y2="321.91" gradientUnits="userSpaceOnUse">
      <stop offset=".2" stop-color="#5fe1fa"/>
      <stop offset=".42" stop-color="#5fe1fa"/>
      <stop offset=".99" stop-color="#005b97"/>
    </linearGradient>
  </defs>
  <g id="ColorStroke">
    <g id="portal">
      <path d="M81.16,49.54c-9.77,1.76,57.47,16.54,50.53,23.15-18.05,18.03-97.17,26.02-113.56,44.75-3.09,3.52,50.68,23.49,48.56,27.1-3.2,5.71-42.4,15.03-42.85,21.97-45.14,86.77-5.48,216.19.01,298.97,1.09,22.85,34.79-33.19,36.47-9.84,17.74,30.32-34.29,131.08-19.43,147.46,34.95-.1,79.74,13.65,88.11,0,12.93-21.09-24.19,42.24,52.1,1.19,68.93-37.1,183.97-2.44,135.75-23.61-12.55-5.51,37.22-8.04,40.84-20.68,3.67-13.04-57.29-73.87-55.39-87.45,3.1-26.67,69.75-31.2,75.07-58.74,2.56-13.56-30.3-90.2-19.68-81.67,185.36,122.61-37.98-127.29,17.43-164.35,37.64-6.54-87.32,5.94-73.04-10.95,139.76-165.32-24.82-26.17-26.88-102-2.29-84.08-7.42-57.28-65.42,13.04-5.77,7-18.65-5.36-27.15-7.58-19.67-5.86-80.97-6.66-101.46-10.75Z" fill="url(#linear-gradient)" stroke="#231f20" stroke-linecap="round" stroke-miterlimit="10" stroke-width="5"/>
      <path d="M162.94,101.23c-12.46,16.11-50.96,61.36-59.42,86.57,5.07,88.09-19.51,212.09,6.39,313.16,5.53,15.65,22.27,28.53,31.66,42.12,9.24,9.58,26.23.12,38.56,1.11,24.75-.08,43.06-23.91,63.1-35.38,10.7-12.61,8.59-52.17,13.61-71.04,3.22-15.8,12.1-35.76,16.46-51.04,1.62-22.76.12-64.04.62-90.91,3.88-37.28-8.05-75.11-19.43-108.83-7.95-17.77-8.8-44.3-22.79-56.28-25.33-21.22-32.79-35.37-68.75-29.48Z" fill="#5fe1fa" stroke="#231f20" stroke-linecap="round" stroke-miterlimit="10" stroke-width="4"/>
      <path d="M182.13,158.39c-72.65,113.19-65.31,95.35-48.24,227,0,0,28.16,80.76,28.16,80.76l54.6,16.41c21.16-56.96,36.71-99.2,30.94-162.3,0,0,10.37-74.82,10.37-74.82l-40.19-70.98-35.64-16.07Z" fill="url(#Water_7)" stroke="#231f20" stroke-linecap="round" stroke-miterlimit="10" stroke-width="3"/>
      <path d="M190.77,179.94c-9.17,22.55-37.17,65.05-52.28,84.35,0,0,12.05,153.11,12.05,153.11l36.67,42.09c26.19,8.63,17.46,4.14,39.49-10.3-4.45-43.4-3.22-103.47,5.09-146.52,0,0-4.24-93.92-4.24-93.92l-36.79-28.81Z" fill="url(#linear-gradient-2)" stroke="#231f20" stroke-linecap="round" stroke-miterlimit="10" stroke-width="2"/>
    </g>
  </g>
</svg>